<mxfile host="app.diagrams.net" modified="2023-05-07T15:18:07.071Z" agent="Mozilla/5.0 (Windows NT 10.0; Win64; x64) AppleWebKit/537.36 (KHTML, like Gecko) Chrome/113.0.0.0 Safari/537.36" etag="lx5qvqIfwbrOJKwOA7HD" version="21.1.8" type="device">
  <diagram name="Page-1" id="2YBvvXClWsGukQMizWep">
    <mxGraphModel dx="712" dy="354" grid="1" gridSize="10" guides="1" tooltips="1" connect="1" arrows="1" fold="1" page="1" pageScale="1" pageWidth="850" pageHeight="1100" math="0" shadow="0">
      <root>
        <mxCell id="0" />
        <mxCell id="1" parent="0" />
        <mxCell id="aM9ryv3xv72pqoxQDRHE-1" value="System" style="shape=umlLifeline;perimeter=lifelinePerimeter;whiteSpace=wrap;html=1;container=0;dropTarget=0;collapsible=0;recursiveResize=0;outlineConnect=0;portConstraint=eastwest;newEdgeStyle={&quot;edgeStyle&quot;:&quot;elbowEdgeStyle&quot;,&quot;elbow&quot;:&quot;vertical&quot;,&quot;curved&quot;:0,&quot;rounded&quot;:0};" parent="1" vertex="1">
          <mxGeometry x="130" y="40" width="100" height="700" as="geometry" />
        </mxCell>
        <mxCell id="aM9ryv3xv72pqoxQDRHE-2" value="" style="html=1;points=[];perimeter=orthogonalPerimeter;outlineConnect=0;targetShapes=umlLifeline;portConstraint=eastwest;newEdgeStyle={&quot;edgeStyle&quot;:&quot;elbowEdgeStyle&quot;,&quot;elbow&quot;:&quot;vertical&quot;,&quot;curved&quot;:0,&quot;rounded&quot;:0};" parent="aM9ryv3xv72pqoxQDRHE-1" vertex="1">
          <mxGeometry x="45" y="80" width="10" height="590" as="geometry" />
        </mxCell>
        <mxCell id="aM9ryv3xv72pqoxQDRHE-5" value="Admin" style="shape=umlLifeline;perimeter=lifelinePerimeter;whiteSpace=wrap;html=1;container=0;dropTarget=0;collapsible=0;recursiveResize=0;outlineConnect=0;portConstraint=eastwest;newEdgeStyle={&quot;edgeStyle&quot;:&quot;elbowEdgeStyle&quot;,&quot;elbow&quot;:&quot;vertical&quot;,&quot;curved&quot;:0,&quot;rounded&quot;:0};" parent="1" vertex="1">
          <mxGeometry x="305" y="40" width="100" height="700" as="geometry" />
        </mxCell>
        <mxCell id="aM9ryv3xv72pqoxQDRHE-6" value="" style="html=1;points=[];perimeter=orthogonalPerimeter;outlineConnect=0;targetShapes=umlLifeline;portConstraint=eastwest;newEdgeStyle={&quot;edgeStyle&quot;:&quot;elbowEdgeStyle&quot;,&quot;elbow&quot;:&quot;vertical&quot;,&quot;curved&quot;:0,&quot;rounded&quot;:0};" parent="aM9ryv3xv72pqoxQDRHE-5" vertex="1">
          <mxGeometry x="45" y="80" width="10" height="590" as="geometry" />
        </mxCell>
        <mxCell id="aM9ryv3xv72pqoxQDRHE-10" value="Verified" style="html=1;verticalAlign=bottom;endArrow=open;dashed=1;endSize=8;edgeStyle=elbowEdgeStyle;elbow=vertical;curved=0;rounded=0;" parent="1" edge="1">
          <mxGeometry x="-0.7356" relative="1" as="geometry">
            <mxPoint x="710" y="200" as="targetPoint" />
            <Array as="points">
              <mxPoint x="260" y="200" />
              <mxPoint x="210" y="230" />
              <mxPoint x="230" y="230" />
              <mxPoint x="265" y="230" />
            </Array>
            <mxPoint x="190" y="200" as="sourcePoint" />
            <mxPoint as="offset" />
          </mxGeometry>
        </mxCell>
        <mxCell id="qUXyr0hkuQ4erByr01QL-1" value="Student" style="shape=umlLifeline;perimeter=lifelinePerimeter;whiteSpace=wrap;html=1;container=0;dropTarget=0;collapsible=0;recursiveResize=0;outlineConnect=0;portConstraint=eastwest;newEdgeStyle={&quot;edgeStyle&quot;:&quot;elbowEdgeStyle&quot;,&quot;elbow&quot;:&quot;vertical&quot;,&quot;curved&quot;:0,&quot;rounded&quot;:0};" vertex="1" parent="1">
          <mxGeometry x="500" y="40" width="100" height="700" as="geometry" />
        </mxCell>
        <mxCell id="qUXyr0hkuQ4erByr01QL-2" value="" style="html=1;points=[];perimeter=orthogonalPerimeter;outlineConnect=0;targetShapes=umlLifeline;portConstraint=eastwest;newEdgeStyle={&quot;edgeStyle&quot;:&quot;elbowEdgeStyle&quot;,&quot;elbow&quot;:&quot;vertical&quot;,&quot;curved&quot;:0,&quot;rounded&quot;:0};" vertex="1" parent="qUXyr0hkuQ4erByr01QL-1">
          <mxGeometry x="45" y="410" width="10" height="190" as="geometry" />
        </mxCell>
        <mxCell id="qUXyr0hkuQ4erByr01QL-3" value="Teacher" style="shape=umlLifeline;perimeter=lifelinePerimeter;whiteSpace=wrap;html=1;container=0;dropTarget=0;collapsible=0;recursiveResize=0;outlineConnect=0;portConstraint=eastwest;newEdgeStyle={&quot;edgeStyle&quot;:&quot;elbowEdgeStyle&quot;,&quot;elbow&quot;:&quot;vertical&quot;,&quot;curved&quot;:0,&quot;rounded&quot;:0};" vertex="1" parent="1">
          <mxGeometry x="670" y="40" width="100" height="700" as="geometry" />
        </mxCell>
        <mxCell id="qUXyr0hkuQ4erByr01QL-4" value="" style="html=1;points=[];perimeter=orthogonalPerimeter;outlineConnect=0;targetShapes=umlLifeline;portConstraint=eastwest;newEdgeStyle={&quot;edgeStyle&quot;:&quot;elbowEdgeStyle&quot;,&quot;elbow&quot;:&quot;vertical&quot;,&quot;curved&quot;:0,&quot;rounded&quot;:0};" vertex="1" parent="qUXyr0hkuQ4erByr01QL-3">
          <mxGeometry x="45" y="80" width="10" height="340" as="geometry" />
        </mxCell>
        <mxCell id="qUXyr0hkuQ4erByr01QL-26" value="" style="html=1;points=[];perimeter=orthogonalPerimeter;outlineConnect=0;targetShapes=umlLifeline;portConstraint=eastwest;newEdgeStyle={&quot;edgeStyle&quot;:&quot;elbowEdgeStyle&quot;,&quot;elbow&quot;:&quot;vertical&quot;,&quot;curved&quot;:0,&quot;rounded&quot;:0};" vertex="1" parent="qUXyr0hkuQ4erByr01QL-3">
          <mxGeometry x="45" y="530" width="10" height="40" as="geometry" />
        </mxCell>
        <mxCell id="qUXyr0hkuQ4erByr01QL-6" value="Registration" style="html=1;verticalAlign=bottom;endArrow=block;edgeStyle=elbowEdgeStyle;elbow=vertical;curved=0;rounded=0;" edge="1" parent="1" source="qUXyr0hkuQ4erByr01QL-3">
          <mxGeometry x="-0.6314" relative="1" as="geometry">
            <mxPoint x="660" y="180" as="sourcePoint" />
            <Array as="points">
              <mxPoint x="390" y="140" />
              <mxPoint x="275" y="180" />
            </Array>
            <mxPoint x="190" y="140" as="targetPoint" />
            <mxPoint as="offset" />
          </mxGeometry>
        </mxCell>
        <mxCell id="qUXyr0hkuQ4erByr01QL-9" value="Verification" style="html=1;verticalAlign=bottom;endArrow=block;edgeStyle=elbowEdgeStyle;elbow=vertical;curved=0;rounded=0;" edge="1" parent="1">
          <mxGeometry x="0.2381" relative="1" as="geometry">
            <mxPoint x="310" y="170" as="sourcePoint" />
            <Array as="points">
              <mxPoint x="350" y="170" />
              <mxPoint x="275" y="210" />
            </Array>
            <mxPoint x="190" y="170" as="targetPoint" />
            <mxPoint as="offset" />
          </mxGeometry>
        </mxCell>
        <mxCell id="qUXyr0hkuQ4erByr01QL-10" value="login" style="html=1;verticalAlign=bottom;endArrow=block;edgeStyle=elbowEdgeStyle;elbow=vertical;curved=0;rounded=0;" edge="1" parent="1">
          <mxGeometry x="-0.6314" relative="1" as="geometry">
            <mxPoint x="719" y="220" as="sourcePoint" />
            <Array as="points">
              <mxPoint x="390" y="220" />
              <mxPoint x="275" y="260" />
            </Array>
            <mxPoint x="190" y="220" as="targetPoint" />
            <mxPoint as="offset" />
          </mxGeometry>
        </mxCell>
        <mxCell id="qUXyr0hkuQ4erByr01QL-11" value="Check Login Credentials" style="html=1;verticalAlign=bottom;endArrow=open;dashed=1;endSize=8;edgeStyle=elbowEdgeStyle;elbow=vertical;curved=0;rounded=0;" edge="1" parent="1">
          <mxGeometry x="-0.7356" relative="1" as="geometry">
            <mxPoint x="710" y="240" as="targetPoint" />
            <Array as="points">
              <mxPoint x="260" y="240" />
              <mxPoint x="210" y="270" />
              <mxPoint x="230" y="270" />
              <mxPoint x="265" y="270" />
            </Array>
            <mxPoint x="190" y="240" as="sourcePoint" />
            <mxPoint as="offset" />
          </mxGeometry>
        </mxCell>
        <mxCell id="qUXyr0hkuQ4erByr01QL-12" value="Create Course" style="html=1;verticalAlign=bottom;endArrow=block;edgeStyle=elbowEdgeStyle;elbow=vertical;curved=0;rounded=0;" edge="1" parent="1" target="aM9ryv3xv72pqoxQDRHE-2">
          <mxGeometry x="-0.6314" relative="1" as="geometry">
            <mxPoint x="719" y="274.65999999999997" as="sourcePoint" />
            <Array as="points">
              <mxPoint x="390" y="274.65999999999997" />
              <mxPoint x="275" y="314.65999999999997" />
            </Array>
            <mxPoint x="180" y="274.65999999999997" as="targetPoint" />
            <mxPoint as="offset" />
          </mxGeometry>
        </mxCell>
        <mxCell id="qUXyr0hkuQ4erByr01QL-13" value="Upload materials" style="html=1;verticalAlign=bottom;endArrow=block;edgeStyle=elbowEdgeStyle;elbow=vertical;curved=0;rounded=0;" edge="1" parent="1">
          <mxGeometry x="-0.6314" relative="1" as="geometry">
            <mxPoint x="719" y="299.99999999999994" as="sourcePoint" />
            <Array as="points">
              <mxPoint x="390" y="299.99999999999994" />
              <mxPoint x="275" y="339.99999999999994" />
            </Array>
            <mxPoint x="190" y="300" as="targetPoint" />
            <mxPoint as="offset" />
          </mxGeometry>
        </mxCell>
        <mxCell id="qUXyr0hkuQ4erByr01QL-14" value="Prompt Password" style="html=1;verticalAlign=bottom;endArrow=open;dashed=1;endSize=8;edgeStyle=elbowEdgeStyle;elbow=vertical;curved=0;rounded=0;" edge="1" parent="1">
          <mxGeometry x="-0.7356" relative="1" as="geometry">
            <mxPoint x="710" y="320" as="targetPoint" />
            <Array as="points">
              <mxPoint x="260" y="320" />
              <mxPoint x="210" y="350" />
              <mxPoint x="230" y="350" />
              <mxPoint x="265" y="350" />
            </Array>
            <mxPoint x="190" y="320" as="sourcePoint" />
            <mxPoint as="offset" />
          </mxGeometry>
        </mxCell>
        <mxCell id="qUXyr0hkuQ4erByr01QL-15" value="Enter password" style="html=1;verticalAlign=bottom;endArrow=block;edgeStyle=elbowEdgeStyle;elbow=vertical;curved=0;rounded=0;" edge="1" parent="1">
          <mxGeometry x="-0.6314" relative="1" as="geometry">
            <mxPoint x="719" y="339.99999999999994" as="sourcePoint" />
            <Array as="points">
              <mxPoint x="390" y="339.99999999999994" />
              <mxPoint x="275" y="379.99999999999994" />
            </Array>
            <mxPoint x="190" y="340" as="targetPoint" />
            <mxPoint as="offset" />
          </mxGeometry>
        </mxCell>
        <mxCell id="qUXyr0hkuQ4erByr01QL-16" value="Verify Password and upload" style="html=1;verticalAlign=bottom;endArrow=open;dashed=1;endSize=8;edgeStyle=elbowEdgeStyle;elbow=vertical;curved=0;rounded=0;" edge="1" parent="1">
          <mxGeometry x="-0.7356" relative="1" as="geometry">
            <mxPoint x="710" y="360" as="targetPoint" />
            <Array as="points">
              <mxPoint x="260" y="360" />
              <mxPoint x="210" y="390" />
              <mxPoint x="230" y="390" />
              <mxPoint x="265" y="390" />
            </Array>
            <mxPoint x="190" y="360" as="sourcePoint" />
            <mxPoint as="offset" />
          </mxGeometry>
        </mxCell>
        <mxCell id="qUXyr0hkuQ4erByr01QL-17" value="Publish Course" style="html=1;verticalAlign=bottom;endArrow=block;edgeStyle=elbowEdgeStyle;elbow=vertical;curved=0;rounded=0;" edge="1" parent="1">
          <mxGeometry x="-0.6314" relative="1" as="geometry">
            <mxPoint x="719" y="379.99999999999994" as="sourcePoint" />
            <Array as="points">
              <mxPoint x="390" y="379.99999999999994" />
              <mxPoint x="275" y="419.99999999999994" />
            </Array>
            <mxPoint x="190" y="380" as="targetPoint" />
            <mxPoint as="offset" />
          </mxGeometry>
        </mxCell>
        <mxCell id="qUXyr0hkuQ4erByr01QL-18" value="Prompt Password" style="html=1;verticalAlign=bottom;endArrow=open;dashed=1;endSize=8;edgeStyle=elbowEdgeStyle;elbow=vertical;curved=0;rounded=0;" edge="1" parent="1">
          <mxGeometry x="-0.7356" relative="1" as="geometry">
            <mxPoint x="710" y="400" as="targetPoint" />
            <Array as="points">
              <mxPoint x="260" y="400" />
              <mxPoint x="210" y="430" />
              <mxPoint x="230" y="430" />
              <mxPoint x="265" y="430" />
            </Array>
            <mxPoint x="190" y="400" as="sourcePoint" />
            <mxPoint as="offset" />
          </mxGeometry>
        </mxCell>
        <mxCell id="qUXyr0hkuQ4erByr01QL-19" value="Enter password" style="html=1;verticalAlign=bottom;endArrow=block;edgeStyle=elbowEdgeStyle;elbow=vertical;curved=0;rounded=0;" edge="1" parent="1">
          <mxGeometry x="-0.6314" relative="1" as="geometry">
            <mxPoint x="719" y="419.99999999999994" as="sourcePoint" />
            <Array as="points">
              <mxPoint x="390" y="419.99999999999994" />
              <mxPoint x="275" y="459.99999999999994" />
            </Array>
            <mxPoint x="190" y="420" as="targetPoint" />
            <mxPoint as="offset" />
          </mxGeometry>
        </mxCell>
        <mxCell id="qUXyr0hkuQ4erByr01QL-20" value="Verify Password and publish" style="html=1;verticalAlign=bottom;endArrow=open;dashed=1;endSize=8;edgeStyle=elbowEdgeStyle;elbow=vertical;curved=0;rounded=0;" edge="1" parent="1">
          <mxGeometry x="-0.7356" relative="1" as="geometry">
            <mxPoint x="710" y="440" as="targetPoint" />
            <Array as="points">
              <mxPoint x="260" y="440" />
              <mxPoint x="210" y="470" />
              <mxPoint x="230" y="470" />
              <mxPoint x="265" y="470" />
            </Array>
            <mxPoint x="190" y="440" as="sourcePoint" />
            <mxPoint as="offset" />
          </mxGeometry>
        </mxCell>
        <mxCell id="qUXyr0hkuQ4erByr01QL-21" value="Registration" style="html=1;verticalAlign=bottom;endArrow=block;edgeStyle=elbowEdgeStyle;elbow=vertical;curved=0;rounded=0;" edge="1" parent="1" source="qUXyr0hkuQ4erByr01QL-2">
          <mxGeometry x="-0.6314" relative="1" as="geometry">
            <mxPoint x="719" y="460" as="sourcePoint" />
            <Array as="points">
              <mxPoint x="210" y="460" />
              <mxPoint x="390" y="460" />
              <mxPoint x="275" y="500" />
            </Array>
            <mxPoint x="190" y="460" as="targetPoint" />
            <mxPoint as="offset" />
          </mxGeometry>
        </mxCell>
        <mxCell id="qUXyr0hkuQ4erByr01QL-22" value="Login" style="html=1;verticalAlign=bottom;endArrow=block;edgeStyle=elbowEdgeStyle;elbow=vertical;curved=0;rounded=0;" edge="1" parent="1">
          <mxGeometry x="-0.6314" relative="1" as="geometry">
            <mxPoint x="545" y="480" as="sourcePoint" />
            <Array as="points">
              <mxPoint x="210" y="480" />
              <mxPoint x="390" y="480" />
              <mxPoint x="275" y="520" />
            </Array>
            <mxPoint x="190" y="480" as="targetPoint" />
            <mxPoint as="offset" />
          </mxGeometry>
        </mxCell>
        <mxCell id="qUXyr0hkuQ4erByr01QL-23" value="View Course" style="html=1;verticalAlign=bottom;endArrow=block;edgeStyle=elbowEdgeStyle;elbow=vertical;curved=0;rounded=0;" edge="1" parent="1">
          <mxGeometry x="-0.6314" relative="1" as="geometry">
            <mxPoint x="545" y="520" as="sourcePoint" />
            <Array as="points">
              <mxPoint x="210" y="520" />
              <mxPoint x="390" y="520" />
              <mxPoint x="275" y="560" />
            </Array>
            <mxPoint x="190" y="520" as="targetPoint" />
            <mxPoint as="offset" />
          </mxGeometry>
        </mxCell>
        <mxCell id="qUXyr0hkuQ4erByr01QL-24" value="Enroll Course" style="html=1;verticalAlign=bottom;endArrow=block;edgeStyle=elbowEdgeStyle;elbow=vertical;curved=0;rounded=0;" edge="1" parent="1">
          <mxGeometry x="-0.6314" relative="1" as="geometry">
            <mxPoint x="545" y="540" as="sourcePoint" />
            <Array as="points">
              <mxPoint x="210" y="540" />
              <mxPoint x="390" y="540" />
              <mxPoint x="275" y="580" />
            </Array>
            <mxPoint x="190" y="540" as="targetPoint" />
            <mxPoint as="offset" />
          </mxGeometry>
        </mxCell>
        <mxCell id="qUXyr0hkuQ4erByr01QL-25" value="Send Notification" style="html=1;verticalAlign=bottom;endArrow=open;dashed=1;endSize=8;edgeStyle=elbowEdgeStyle;elbow=vertical;curved=0;rounded=0;" edge="1" parent="1">
          <mxGeometry x="-0.7356" relative="1" as="geometry">
            <mxPoint x="710" y="590" as="targetPoint" />
            <Array as="points">
              <mxPoint x="260" y="590" />
              <mxPoint x="210" y="620" />
              <mxPoint x="230" y="620" />
              <mxPoint x="265" y="620" />
            </Array>
            <mxPoint x="190" y="590" as="sourcePoint" />
            <mxPoint as="offset" />
          </mxGeometry>
        </mxCell>
        <mxCell id="qUXyr0hkuQ4erByr01QL-27" value="Drop Course" style="html=1;verticalAlign=bottom;endArrow=block;edgeStyle=elbowEdgeStyle;elbow=vertical;curved=0;rounded=0;" edge="1" parent="1">
          <mxGeometry x="-0.6314" relative="1" as="geometry">
            <mxPoint x="545" y="610" as="sourcePoint" />
            <Array as="points">
              <mxPoint x="210" y="610" />
              <mxPoint x="390" y="610" />
              <mxPoint x="275" y="650" />
            </Array>
            <mxPoint x="190" y="610" as="targetPoint" />
            <mxPoint as="offset" />
          </mxGeometry>
        </mxCell>
        <mxCell id="qUXyr0hkuQ4erByr01QL-28" value="Manage Accounts" style="html=1;verticalAlign=bottom;endArrow=block;edgeStyle=elbowEdgeStyle;elbow=vertical;curved=0;rounded=0;" edge="1" parent="1">
          <mxGeometry x="0.0667" relative="1" as="geometry">
            <mxPoint x="340" y="660" as="sourcePoint" />
            <Array as="points">
              <mxPoint x="210" y="660" />
              <mxPoint x="390" y="660" />
              <mxPoint x="275" y="700" />
            </Array>
            <mxPoint x="190" y="660" as="targetPoint" />
            <mxPoint as="offset" />
          </mxGeometry>
        </mxCell>
        <mxCell id="qUXyr0hkuQ4erByr01QL-29" value="Remove accounts" style="html=1;verticalAlign=bottom;endArrow=block;edgeStyle=elbowEdgeStyle;elbow=vertical;curved=0;rounded=0;" edge="1" parent="1">
          <mxGeometry x="0.0667" relative="1" as="geometry">
            <mxPoint x="340" y="690" as="sourcePoint" />
            <Array as="points">
              <mxPoint x="210" y="690" />
              <mxPoint x="390" y="690" />
              <mxPoint x="275" y="730" />
            </Array>
            <mxPoint x="190" y="690" as="targetPoint" />
            <mxPoint as="offset" />
          </mxGeometry>
        </mxCell>
        <mxCell id="qUXyr0hkuQ4erByr01QL-30" value="Check Login Credentials" style="html=1;verticalAlign=bottom;endArrow=open;dashed=1;endSize=8;edgeStyle=elbowEdgeStyle;elbow=vertical;curved=0;rounded=0;" edge="1" parent="1">
          <mxGeometry x="-0.5429" relative="1" as="geometry">
            <mxPoint x="540" y="500" as="targetPoint" />
            <Array as="points">
              <mxPoint x="260" y="500" />
              <mxPoint x="210" y="530" />
              <mxPoint x="230" y="530" />
              <mxPoint x="265" y="530" />
            </Array>
            <mxPoint x="190" y="500" as="sourcePoint" />
            <mxPoint as="offset" />
          </mxGeometry>
        </mxCell>
        <mxCell id="qUXyr0hkuQ4erByr01QL-31" value="Confirmation" style="html=1;verticalAlign=bottom;endArrow=open;dashed=1;endSize=8;edgeStyle=elbowEdgeStyle;elbow=vertical;curved=0;rounded=0;" edge="1" parent="1">
          <mxGeometry x="-0.5429" relative="1" as="geometry">
            <mxPoint x="540" y="560" as="targetPoint" />
            <Array as="points">
              <mxPoint x="260" y="560" />
              <mxPoint x="210" y="590" />
              <mxPoint x="230" y="590" />
              <mxPoint x="265" y="590" />
            </Array>
            <mxPoint x="190" y="560" as="sourcePoint" />
            <mxPoint as="offset" />
          </mxGeometry>
        </mxCell>
        <mxCell id="qUXyr0hkuQ4erByr01QL-32" value="Confirmation" style="html=1;verticalAlign=bottom;endArrow=open;dashed=1;endSize=8;edgeStyle=elbowEdgeStyle;elbow=vertical;curved=0;rounded=0;" edge="1" parent="1">
          <mxGeometry x="-0.5429" relative="1" as="geometry">
            <mxPoint x="540" y="630" as="targetPoint" />
            <Array as="points">
              <mxPoint x="260" y="630" />
              <mxPoint x="210" y="660" />
              <mxPoint x="230" y="660" />
              <mxPoint x="265" y="660" />
            </Array>
            <mxPoint x="190" y="630" as="sourcePoint" />
            <mxPoint as="offset" />
          </mxGeometry>
        </mxCell>
      </root>
    </mxGraphModel>
  </diagram>
</mxfile>
